<svg width="90" height="90" viewBox="0 0 90 90" fill="none" xmlns="http://www.w3.org/2000/svg">
    <g id="NativeOps_Vector_wht-1.svg">
        <g id="Group">
            <g id="Vector">
                <path d="M71.0879 13.7718C70.5086 12.9976 69.8743 12.2657 69.2031 11.57C64.1247 6.30699 56.2024 3.92506 49.0433 5.49491C47.7215 5.77336 46.4289 6.18113 45.1827 6.70269C29.51 13.2623 26.8689 34.2798 40.3432 44.5559C37.214 31.4962 45.627 17.3951 58.6655 14.0683C61.0161 13.4071 63.5068 13.0933 65.9665 13.1493C67.6957 13.189 69.3999 13.3993 71.0887 13.7735C71.0887 13.7735 71.0879 13.7726 71.087 13.7718H71.0879Z"
                      fill="#04D9B2"/>
                <path d="M39.8438 5.22249C38.889 5.08542 37.9239 5.01818 36.9596 5.00266C29.6586 4.88283 22.3775 8.81738 18.4215 15.0054C17.6832 16.1399 17.0576 17.3442 16.5445 18.5968C10.0858 34.3514 23.035 51.087 39.806 48.7956C28.3875 41.7808 24.3954 25.8418 31.2701 14.2425C32.4656 12.1079 34.0057 10.12 35.7856 8.41392C37.0361 7.21477 38.3897 6.15527 39.8473 5.22163C39.8473 5.22163 39.8456 5.22163 39.8447 5.22163L39.8438 5.22249Z"
                      fill="#05C7F2"/>
                <path d="M11.7265 21.3883C10.9547 21.9693 10.225 22.6055 9.53147 23.2788C4.2846 28.3729 1.90997 36.3187 3.47501 43.4998C3.7526 44.8257 4.15912 46.1214 4.67908 47.3706C11.2185 63.0915 32.1716 65.7407 42.4161 52.2249C29.3965 55.3638 15.3387 46.9249 12.0221 33.8462C11.3629 31.4884 11.0501 28.9901 11.106 26.5228C11.1455 24.7883 11.3552 23.0788 11.7282 21.3848C11.7282 21.3848 11.7273 21.3857 11.7265 21.3865V21.3883Z"
                      fill="#5E66F2"/>
                <path d="M65.4671 60.9432C77.5803 60.9432 87.4 51.0933 87.4 38.9428C87.4 26.7924 77.5803 16.9425 65.4671 16.9425C53.354 16.9425 43.5343 26.7924 43.5343 38.9428C43.5343 51.0933 53.354 60.9432 65.4671 60.9432Z"
                      fill="#05F283"/>
            </g>
            <g id="Group_2">
                <path id="Vector_2"
                      d="M10.161 82.0528H9.07199L2.12399 70.1998V82.0528H1.28699V69.0388H2.27699L9.32399 80.9458V69.0388H10.161V82.0528Z"
                      fill="black"/>
                <path id="Vector_3"
                      d="M20.952 82.0529H20.169V80.5859C19.647 81.6569 18.495 82.1879 16.695 82.1879C15.489 82.1879 14.598 81.9719 14.04 81.5309C13.482 81.0989 13.203 80.3879 13.203 79.4159C13.203 78.2729 13.5 77.5079 14.085 77.1119C14.67 76.7249 15.57 76.5269 16.794 76.5269H20.106C20.097 75.4739 20.052 74.8259 19.989 74.5739C19.818 73.9799 19.323 73.6019 18.504 73.4669C18.144 73.4039 17.703 73.3679 17.199 73.3679C16.623 73.3679 16.155 73.4039 15.777 73.4669C15.399 73.5299 15.048 73.7099 14.724 74.0159C14.4 74.3129 14.238 74.7359 14.238 75.2849H13.455C13.455 74.7359 13.563 74.2769 13.779 73.8989C13.995 73.5209 14.292 73.2419 14.688 73.0619C15.075 72.8819 15.48 72.7559 15.903 72.6839C16.326 72.6119 16.812 72.5759 17.352 72.5759C17.793 72.5759 18.189 72.6029 18.54 72.6569C18.891 72.7109 19.188 72.7829 19.44 72.8729C19.683 72.9629 19.899 73.0799 20.088 73.2149C20.268 73.3499 20.412 73.5029 20.52 73.6739C20.628 73.8449 20.709 74.0249 20.772 74.2229C20.835 74.4209 20.88 74.6279 20.898 74.8349C20.916 75.0419 20.934 75.2759 20.943 75.5189C20.952 75.7619 20.952 76.0049 20.943 76.2479C20.943 76.4189 20.943 76.5449 20.943 76.6349L20.952 82.0529ZM20.106 77.2919H16.713C15.786 77.2919 15.111 77.4269 14.688 77.7059C14.256 77.9759 14.04 78.5429 14.04 79.4069C14.04 80.1359 14.238 80.6579 14.625 80.9639C15.012 81.2789 15.687 81.4319 16.632 81.4319C17.415 81.4319 18.045 81.3419 18.522 81.1709C18.999 80.9999 19.359 80.7119 19.584 80.3159C19.809 79.9199 19.962 79.4969 20.025 79.0559C20.088 78.6149 20.124 78.0209 20.106 77.2919Z"
                      fill="black"/>
                <path id="Vector_4"
                      d="M30.465 79.4968C30.465 81.2878 29.466 82.1878 27.459 82.1878C26.469 82.1878 25.74 81.9808 25.254 81.5668C24.768 81.1528 24.534 80.4598 24.534 79.4968V73.4848H22.932V72.7198H24.534V69.0298H25.371V72.7198H29.682V73.4848H25.38V79.4968C25.38 80.2258 25.542 80.7298 25.875 80.9998C26.208 81.2698 26.748 81.4138 27.504 81.4138C28.26 81.4138 28.809 81.2698 29.16 80.9728C29.511 80.6758 29.691 80.1898 29.691 79.4968H30.465Z"
                      fill="black"/>
                <path id="Vector_5"
                      d="M33.6509 69.5068C33.6509 69.9388 33.4439 70.1548 33.0299 70.1548C32.6159 70.1548 32.4089 69.9388 32.4089 69.5068C32.4089 69.1018 32.6159 68.9038 33.0299 68.9038C33.4439 68.9038 33.6509 69.1018 33.6509 69.5068ZM33.4349 82.0528H32.5979V72.7288H33.4349V82.0528Z"
                      fill="black"/>
                <path id="Vector_6"
                      d="M43.578 72.7288L40.005 82.0528H39.069L35.478 72.7288H36.351L39.555 81.0988L42.696 72.7288H43.578Z"
                      fill="black"/>
                <path id="Vector_7"
                      d="M53.037 77.4629H46.107C46.107 78.0479 46.125 78.5159 46.152 78.8669C46.188 79.2179 46.26 79.5779 46.368 79.9379C46.476 80.2979 46.647 80.5769 46.863 80.7569C47.088 80.9369 47.394 81.0899 47.781 81.2069C48.168 81.3239 48.654 81.3779 49.221 81.3779C51.129 81.3779 52.092 80.7479 52.092 79.4879H52.875C52.875 81.2789 51.651 82.1789 49.203 82.1789C48.348 82.1789 47.655 82.0799 47.124 81.8999C46.593 81.7109 46.197 81.3959 45.927 80.9549C45.657 80.5139 45.477 80.0279 45.387 79.5059C45.306 78.9749 45.261 78.2819 45.261 77.4089C45.261 76.5539 45.306 75.8609 45.387 75.3299C45.468 74.8079 45.648 74.3129 45.9 73.8539C46.161 73.3949 46.557 73.0709 47.079 72.8729C47.61 72.6659 48.294 72.5669 49.14 72.5669C49.833 72.5669 50.409 72.6389 50.886 72.7919C51.363 72.9449 51.741 73.1429 52.02 73.3859C52.299 73.6289 52.515 73.9799 52.659 74.4209C52.812 74.8619 52.902 75.3119 52.956 75.7529C53.019 76.2119 53.037 76.7789 53.037 77.4629ZM52.218 76.7069C52.218 75.5009 52.002 74.6369 51.579 74.1239C51.147 73.6109 50.346 73.3499 49.158 73.3499C47.997 73.3499 47.205 73.6109 46.764 74.1329C46.332 74.6549 46.107 75.5099 46.107 76.7069H52.218Z"
                      fill="black"/>
                <path id="Vector_8"
                      d="M65.682 75.5368C65.682 77.4358 65.619 78.7048 65.484 79.3438C65.214 80.5948 64.521 81.4228 63.414 81.8368C62.739 82.0888 61.866 82.2058 60.804 82.2058C58.644 82.2058 57.24 81.6568 56.592 80.5498C56.178 79.8478 55.953 78.6418 55.926 76.9228C55.926 76.7698 55.926 76.3018 55.926 75.5368C55.926 73.6558 55.989 72.3868 56.124 71.7568C56.394 70.5238 57.078 69.6958 58.176 69.2818C58.851 69.0298 59.733 68.9128 60.813 68.9128C62.973 68.9128 64.377 69.4618 65.025 70.5508C65.439 71.2438 65.664 72.4408 65.691 74.1418C65.682 74.2858 65.682 74.7538 65.682 75.5368ZM64.827 75.5548C64.827 73.7368 64.764 72.5488 64.656 72.0088C64.431 70.9828 63.873 70.3078 62.955 70.0018C62.406 69.8038 61.695 69.7048 60.813 69.7048C59.04 69.7048 57.897 70.1368 57.357 70.9918C56.997 71.5678 56.808 72.6208 56.79 74.1688C56.79 74.2948 56.79 74.7628 56.79 75.5548C56.79 75.6448 56.79 75.7798 56.79 75.9418C56.79 76.4458 56.79 76.8238 56.79 77.0758C56.79 77.3188 56.799 77.6518 56.826 78.0478C56.853 78.4528 56.889 78.7498 56.934 78.9388C56.979 79.1278 57.051 79.3708 57.141 79.6588C57.231 79.9558 57.339 80.1628 57.474 80.2888C57.6 80.4148 57.771 80.5678 57.969 80.7478C58.167 80.9278 58.401 81.0448 58.671 81.1168C58.941 81.1888 59.247 81.2518 59.607 81.3058C59.967 81.3598 60.363 81.3868 60.804 81.3868C61.245 81.3868 61.65 81.3598 62.001 81.3058C62.361 81.2518 62.667 81.1888 62.937 81.1168C63.207 81.0448 63.441 80.9188 63.639 80.7478C63.837 80.5768 64.008 80.4238 64.134 80.2888C64.26 80.1628 64.377 79.9468 64.467 79.6498C64.557 79.3528 64.629 79.1098 64.674 78.9388C64.719 78.7678 64.755 78.4708 64.782 78.0478C64.809 77.6338 64.818 77.3098 64.818 77.0848C64.818 76.8598 64.818 76.4728 64.818 75.9418C64.827 75.7708 64.827 75.6448 64.827 75.5548Z"
                      fill="black"/>
                <path id="Vector_9"
                      d="M76.7789 77.3909C76.7789 78.0569 76.7609 78.5969 76.7159 79.0199C76.6709 79.4429 76.5899 79.8749 76.4459 80.3159C76.3019 80.7569 76.0949 81.0989 75.8339 81.3509C75.5639 81.5939 75.2039 81.8009 74.7449 81.9539C74.2859 82.1069 73.7099 82.1879 73.0349 82.1879C71.4599 82.1879 70.3799 81.6839 69.7769 80.6849V85.7789H68.9399V72.7289H69.7409V74.1329C70.3349 73.0889 71.4419 72.5669 73.0349 72.5669C73.8629 72.5669 74.5379 72.6749 75.0509 72.8909C75.5639 73.1069 75.9419 73.4489 76.1939 73.9259C76.4369 74.4029 76.5989 74.8889 76.6709 75.3929C76.7429 75.8879 76.7789 76.5539 76.7789 77.3909ZM75.9419 77.3729C75.9419 76.9139 75.9329 76.5539 75.9239 76.2929C75.9149 76.0229 75.8789 75.7169 75.8159 75.3659C75.7529 75.0149 75.6719 74.7359 75.5549 74.5379C75.4379 74.3399 75.2759 74.1419 75.0779 73.9439C74.8799 73.7459 74.6099 73.6109 74.2859 73.5209C73.9619 73.4399 73.5749 73.3949 73.1339 73.3949C71.8559 73.3949 70.9739 73.6739 70.4879 74.2409C70.0019 74.8079 69.7589 75.8519 69.7589 77.3729C69.7589 78.9029 70.0019 79.9649 70.4969 80.5319C70.9919 81.1079 71.8649 81.3869 73.1339 81.3869C73.6559 81.3869 74.0969 81.3149 74.4569 81.1619C74.8169 81.0089 75.1049 80.8379 75.2939 80.6399C75.4919 80.4329 75.6359 80.1359 75.7349 79.7399C75.8339 79.3439 75.8879 78.9839 75.9059 78.6689C75.9329 78.3449 75.9419 77.9129 75.9419 77.3729Z"
                      fill="black"/>
                <path id="Vector_10"
                      d="M86.67 79.4157C86.67 80.4147 86.364 81.1347 85.743 81.5667C85.122 81.9987 84.159 82.2057 82.845 82.1877C81.531 82.1697 80.604 81.9717 80.055 81.5847C79.506 81.1977 79.236 80.4957 79.236 79.4967H80.019C80.019 80.2257 80.217 80.7297 80.613 80.9997C81.009 81.2697 81.747 81.4137 82.827 81.4137C83.907 81.4137 84.681 81.2697 85.14 80.9727C85.599 80.6757 85.833 80.1807 85.833 79.4607C85.833 78.8487 85.707 78.4347 85.464 78.2187C85.221 78.0027 84.699 77.8587 83.925 77.7867C83.637 77.7597 83.241 77.7327 82.728 77.6967C82.215 77.6697 81.828 77.6427 81.585 77.6247C81.342 77.6067 81.045 77.5527 80.712 77.4627C80.37 77.3727 80.127 77.2467 79.974 77.0847C79.821 76.9227 79.677 76.6887 79.569 76.3827C79.452 76.0767 79.389 75.7077 79.389 75.2577C79.389 74.2587 79.686 73.5567 80.289 73.1517C80.883 72.7467 81.855 72.5577 83.196 72.5667C84.591 72.5667 85.545 72.8367 86.067 73.3677C86.472 73.7997 86.67 74.4207 86.67 75.2397H85.869C85.869 74.5647 85.68 74.0787 85.293 73.7817C84.906 73.4847 84.213 73.3407 83.214 73.3407C82.134 73.3407 81.369 73.4757 80.919 73.7367C80.469 73.9977 80.244 74.4477 80.226 75.0867C80.217 75.7617 80.334 76.1937 80.577 76.3917C80.82 76.5897 81.315 76.7337 82.062 76.8057C82.359 76.8237 82.755 76.8597 83.259 76.8957C83.763 76.9317 84.141 76.9587 84.402 76.9767C84.663 76.9947 84.96 77.0487 85.302 77.1477C85.644 77.2377 85.896 77.3637 86.058 77.5347C86.22 77.6967 86.364 77.9397 86.49 78.2547C86.607 78.5697 86.67 78.9567 86.67 79.4157Z"
                      fill="black"/>
            </g>
        </g>
    </g>
</svg>
