<?xml version="1.0" encoding="iso-8859-1"?>
<!-- Generator: Adobe Illustrator 26.0.2, SVG Export Plug-In . SVG Version: 6.00 Build 0)  -->
<svg version="1.1" id="Calque_1" xmlns="http://www.w3.org/2000/svg" xmlns:xlink="http://www.w3.org/1999/xlink" x="0px" y="0px"
	 viewBox="0 0 1000 1000" style="enable-background:new 0 0 1000 1000;" xml:space="preserve">
<g>
	<g>
		<g>
			<path style="fill:#5E66F2;" d="M465.07,594.59c-1.945,0.508-3.402,0.899-5.769,1.373c-0.004,0.001-0.009,0.002-0.013,0.003
				c-9.882,1.559-19.042,3.057-29.043,4.174c-0.003,0.001-0.006,0.001-0.01,0.001c-4.382,0.422-8.378,0.464-12.585,0.654
				c-0.008,0-0.015,0.001-0.023,0.001c-5.786,0.324-11.809,0.887-18.231,0.597c0.541,0.029,1.084,0.029,1.625,0.046v-0.004
				c-1.585-0.032-3.176-0.067-4.758-0.157h-0.003c-7.169-0.233-14.428-0.517-21.539-1.221c-0.003-0.001-0.005-0.001-0.009-0.001
				c-2.702-0.253-5.393-0.566-8.078-0.891c-0.002,0-0.004-0.001-0.006-0.001c-17.255-2.158-34.629-5.601-51.246-10.68
				c-1.296-0.395-2.575-0.837-3.849-1.29c-6.93-2.26-13.815-4.746-20.603-7.419c-2.47-0.989-4.913-2.046-7.355-3.1
				c-0.004-0.002-0.01-0.004-0.015-0.006c-0.194-0.084-0.589-0.256-0.782-0.34l0.005-0.011l-0.001-0.001l-0.005,0.012
				c-5.566-2.481-11.124-5.048-16.564-7.841v0c-9.938-4.914-20.186-10.946-28.738-16.567v-0.001
				c-0.885-0.583-1.735-1.183-2.723-1.901c-6.225-4.28-12.374-8.732-18.347-13.465c-0.001-0.001-0.002-0.002-0.002-0.002
				c-2.069-1.636-4.104-3.35-6.129-5.047c0-0.001-0.001-0.001-0.002-0.002v0.001c-4.877-4.124-9.769-8.457-14.425-12.893v-0.001
				c-1.836-1.736-3.756-3.524-5.516-5.295c0-0.001-0.001-0.001-0.001-0.002l-0.001,0.001c-6.784-6.8-12.42-12.989-17.816-19.402
				c-0.002-0.002-0.003-0.004-0.004-0.006c-0.011-0.012-0.021-0.024-0.031-0.036l0.001-0.001c-0.547-0.656-1.078-1.328-1.616-2.038
				c-5.078-6.239-9.868-12.669-14.459-19.295c-0.001,0-0.001-0.001-0.001-0.001c-6.756-9.968-13.025-20.335-18.735-30.953
				c-0.001-0.002-0.002-0.004-0.003-0.007c-4.172-7.991-8.012-15.893-11.456-24.1l-0.086-0.189
				c-24.03-57.678-29.465-120.325-15.742-180.567c-1.564,1.182-3.14,2.346-4.679,3.564v0.001c-1.828,1.445-3.609,2.954-5.399,4.45
				c-0.001,0.001-0.002,0.001-0.002,0.002c-4.092,3.52-8.18,7.048-12.095,10.8c-0.001,0.001-0.002,0.002-0.003,0.002v-0.001
				c-1.626,1.547-3.277,3.06-4.863,4.651v0.001c-0.001,0.001-0.001,0.001-0.002,0.001c-5.208,5.358-10.392,10.716-15.167,16.484
				c0,0.001,0,0.001-0.001,0.002c-0.332,0.398-0.625,0.831-0.953,1.231c0,0,0,0,0,0.001c-4.471,5.423-8.692,11.1-12.736,16.941
				c0,0.001,0,0.001-0.001,0.001c-1.307,1.933-2.565,3.909-3.862,5.851c0,0.001,0,0.001-0.001,0.002
				c-3.06,4.691-5.973,9.508-8.747,14.445c0,0.001,0,0.001,0,0.001c-1.147,2.036-2.279,4.086-3.41,6.134
				c-0.001,0-0.001,0.001-0.001,0.001c-3.599,6.894-6.931,14.049-10.075,21.211v0.001c-0.003,0.008-0.006,0.014-0.011,0.021
				c-0.006,0.014-0.014,0.028-0.019,0.043c-54.447,128.461,8.875,281.15,138.04,333.531c0,0.001,0.001,0.001,0.001,0.001
				c8.039,3.154,16.152,6.2,24.4,8.7c0,0,0,0,0.001,0c2.656,0.805,5.34,1.296,8.014,1.999c0.001,0,0.001,0,0.001,0
				c5.529,1.452,11.061,2.976,16.653,4.103c-1.392-0.272-2.779-0.633-4.168-0.953c1.39,0.32,2.777,0.681,4.168,0.953
				c0.002,0.001,0.003,0.001,0.004,0.001c3.272,0.638,6.55,0.937,9.825,1.444v-0.001c0,0,0.001,0.001,0.002,0.001
				c2.734,0.42,5.461,0.883,8.2,1.268c0.006,0,0.012,0.002,0.018,0.003c2.24,0.331,4.479,0.643,6.719,0.855c0,0,0,0,0.001,0
				c18.066,1.266,36.23,1.571,54.222-0.835c0.001-0.001,0.002-0.001,0.003-0.001c5.457-0.659,10.877-1.501,16.265-2.507
				c0,0,0.001,0,0.002,0c2.025-0.379,4.063-0.699,6.077-1.127c0.001,0,0.001,0,0.001,0c7.167-1.561,14.285-3.364,21.322-5.424
				c0.001,0,0.001-0.001,0.002-0.001c7.006-2.321,14.013-4.642,20.851-7.426c0-0.001,0.001-0.001,0.002-0.001
				c2.138-0.892,4.271-1.803,6.404-2.706v-0.001c0.001,0,0.001,0,0.001,0c6.826-3.179,13.689-6.302,20.354-9.811
				c0-0.001,0.001-0.001,0.001-0.001c6.391-3.586,12.754-7.222,18.903-11.221c0-0.001,0.001-0.001,0.001-0.001
				c0.73-0.481,1.416-1.028,2.141-1.517c0-0.001,0-0.001,0.001-0.001c7.271-5.025,14.437-10.221,21.156-15.979v-0.001
				c0.001-0.001,0.003-0.002,0.004-0.003c4.14-3.505,8.094-7.26,12.161-10.86c0.003-0.002,0.006-0.006,0.01-0.008
				c1.603-1.525,3.232-3.018,4.798-4.588c0-0.001,0-0.001,0.001-0.001c5.283-5.299,10.385-10.772,15.201-16.521
				c0.001-0.001,0.001-0.001,0.001-0.002c0.307-0.367,0.577-0.768,0.882-1.139c0.001-0.001,0.002-0.002,0.002-0.002
				c2.349-2.848,4.622-5.773,6.844-8.747c0-0.001,0-0.001,0-0.001c0.011-0.014,0.021-0.03,0.032-0.044L465.07,594.59z"/>
			<path style="fill:#5E66F2;" d="M411.783,557.09c-0.653,0.038-1.305,0.074-1.958,0.109c1.303-0.072,2.605-0.145,3.907-0.218
				C413.083,557.018,412.433,557.052,411.783,557.09z"/>
			<path style="fill:#5E66F2;" d="M401.348,557.473c-0.006,0-0.013,0.001-0.019,0.001c0.006,0,0.013,0,0.019,0V557.473z"/>
			<path style="fill:#5E66F2;" d="M415.503,556.883c-0.001,0-0.001,0-0.002,0c0,0-0.001,0.001-0.002,0.001
				c-0.026,0.001-0.053,0.003-0.079,0.004c0.027-0.002,0.054-0.003,0.081-0.004C415.501,556.883,415.502,556.883,415.503,556.883z"
				/>
		</g>
		<path style="fill:#05C7F2;" d="M425.203,546.537c-123.537-84.882-165.143-260.822-86.904-393.044
			c8.424-14.794,17.806-28.514,28.058-41.03c17.55-21.593,40.385-42.166,63.647-57.93c2.388-1.765,4.949-3.372,7.496-4.98
			C323.8,32.718,209.626,98.297,166.53,204.462c-25.845,61.824-26.04,133.419-0.047,195.375c0.008,0.014,0.014,0.027,0.021,0.043
			c0,0,0,0,0,0.001c1.284,3.104,2.675,6.127,4.083,9.14c0,0.002,0.001,0.003,0.002,0.005c0,0.001,0.001,0.002,0.001,0.003
			c0.004,0.008,0.007,0.016,0.011,0.024c0.402,0.921,0.809,1.839,1.28,2.726c0.007,0.012,0.011,0.023,0.017,0.034
			c0.001,0.001,0.001,0.003,0.002,0.004c1.566,3.095,3.077,6.236,4.678,9.304c0,0.001,0,0.001,0.001,0.001
			c1.082,2.063,2.243,4.061,3.377,6.084c0.001,0.001,0.001,0.001,0.001,0.002c2.837,4.901,5.838,9.663,8.761,14.49
			c-0.001-0.001-0.002-0.002-0.003-0.004c0.002,0.002,0.003,0.004,0.004,0.006c0,0.001,0.001,0.001,0.001,0.002
			c0.001,0.002,0.003,0.005,0.004,0.007c0.001,0.003,0.003,0.005,0.004,0.007c0,0.001,0.001,0.001,0.001,0.002
			c1.27,1.947,2.515,3.911,3.832,5.814c0,0.001,0.001,0.001,0.001,0.002c4.114,5.756,8.315,11.468,12.749,16.976
			c0.001,0.001,0.001,0.001,0.001,0.002c0.321,0.393,0.608,0.818,0.934,1.209c0.001,0.001,0.001,0.002,0.002,0.002
			c6.339,7.32,12.838,14.49,19.928,21.062v0.001c3.988,3.803,8.082,7.469,12.29,10.986c0,0.001,0.001,0.001,0.002,0.001
			c1.732,1.45,3.457,2.912,5.226,4.314c0.003,0.002,0.007,0.005,0.01,0.008c0.006,0.005,0.013,0.01,0.02,0.015
			c3.827,2.925,7.684,5.798,11.584,8.619c0.001,0,0.001,0,0.001,0.001c0.001,0,0.002,0.001,0.003,0.002
			c1.458,1.017,2.902,2.061,4.364,3.07c0.001,0,0.001,0.001,0.001,0.001c0.673,0.451,1.318,0.947,1.985,1.406
			c0,0,0.001,0,0.001,0.001c0.299,0.196,0.608,0.374,0.909,0.567c5.948,3.706,11.91,7.403,18.084,10.722
			c0.001,0,0.001,0,0.002,0.002c1.827,0.989,3.699,1.887,5.546,2.831c0,0,0.001,0,0.001,0.001c4.918,2.38,9.873,4.688,14.826,6.993
			c0.001,0.001,0.002,0.001,0.004,0.002c2.09,0.879,4.171,1.783,6.267,2.648c0,0.001,0.001,0.001,0.001,0.001
			c0.013,0.005,0.025,0.01,0.036,0.014c5.83,2.338,11.781,4.362,17.73,6.376c0,0.001,0.002,0.001,0.002,0.001
			c7.999,2.72,16.248,4.659,24.488,6.511c0.005,0.002,0.011,0.003,0.017,0.004c1.975,0.38,3.956,0.736,5.936,1.099l0.001,0
			c2.434,0.454,4.887,0.831,7.328,1.257c0.009,0.001,0.017,0.003,0.026,0.004c2.984,0.46,5.972,0.876,8.968,1.267
			c-0.008-0.001-0.015-0.002-0.024-0.003c0.013,0.003,0.025,0.003,0.038,0.005c0.019,0.003,0.04,0.005,0.06,0.008
			c0,0,0.001,0.001,0.002,0.001c2.296,0.278,4.593,0.547,6.9,0.764h0.001c3.013,0.247,6.034,0.447,9.051,0.678
			c0.005,0,0.011,0.001,0.016,0.001c-0.004-0.001-0.009-0.001-0.013-0.001c3.097,0.159,6.204,0.227,9.304,0.362h0.001
			c6.052,0.357,12.118-0.109,18.168-0.431c0.004,0,0.009-0.001,0.013-0.001c0.023-0.001,0.044-0.002,0.065-0.004
			c0.004,0,0.009,0,0.013,0c3.571-0.188,7.128-0.183,10.695-0.518c0,0,0.002,0,0.002,0c3.795-0.474,7.581-0.951,11.368-1.561
			C433.36,552.161,429.185,549.357,425.203,546.537z"/>
		<path style="fill:#04D9B2;" d="M801.439,148.585c-6.734-8.981-14.118-17.469-21.929-25.533c0,0,0,0,0-0.001
			c-59.079-61.044-151.243-88.676-234.531-70.468c-0.002,0-0.004,0.001-0.008,0.001c-0.002,0-0.006,0.001-0.009,0.001
			c-15.374,3.23-30.402,7.957-44.895,14.011c-182.335,76.078-213.063,319.848-56.307,439.03
			c-36.401-151.465,61.473-315.021,213.16-353.601c0.979-0.269,1.959-0.509,2.942-0.743c25.129-7.07,51.805-9.948,78.117-10.063
			c1.293,0.025,2.592,0.083,3.883,0.151c20.12,0.456,39.941,2.9,59.594,7.238C801.449,148.599,801.444,148.592,801.439,148.585z"/>
		<g>
			<path style="fill:#05F283;" d="M988.577,404.843c-3.018-21.3-8.711-42.058-16.97-62.013c0,0,0,0,0-0.001
				c-0.123-0.3-0.265-0.587-0.394-0.883c-0.519-1.153-1.017-2.322-1.548-3.466c0,0,0,0,0-0.001c-0.496-1.122-1.028-2.216-1.533-3.33
				c-1.294-2.811-2.6-5.61-3.98-8.356c-1.866-3.857-3.881-7.636-6.019-11.338c-0.001,0-0.001-0.001-0.001-0.001
				c0-0.001,0-0.001-0.001-0.001c0-0.001,0-0.001,0-0.001c-0.001-0.002-0.002-0.005-0.004-0.008
				c-2.784-4.97-5.711-9.817-8.79-14.536c0-0.001,0-0.001-0.001-0.001c-1.262-1.936-2.505-3.891-3.814-5.784
				c-0.001-0.001-0.001-0.002-0.001-0.002c-4.106-5.803-8.35-11.498-12.787-17.03c0,0,0,0,0-0.001
				c-0.309-0.377-0.594-0.779-0.898-1.161c0,0-0.001,0-0.001-0.001c-4.883-5.702-9.973-11.235-15.234-16.575c0,0,0,0,0-0.001
				c-1.529-1.533-3.119-2.992-4.683-4.482l-0.001-0.001c-4.125-3.641-8.133-7.435-12.312-11.006c-0.001,0-0.001-0.001-0.001-0.001
				c-1.731-1.447-3.453-2.909-5.219-4.306c-0.001-0.001-0.002-0.001-0.002-0.002c-5.2-4.12-10.534-8.05-16.018-11.739
				c-0.001-0.001-0.001-0.001-0.002-0.002c-0.654-0.439-1.272-0.932-1.927-1.365c-0.005-0.004-0.01-0.008-0.015-0.011
				c-0.005-0.003-0.011-0.006-0.015-0.009c-0.004-0.002-0.009-0.005-0.013-0.008c-0.658-0.429-1.361-0.775-2.02-1.201
				c0-0.001-0.001-0.001-0.001-0.001c-12.891-8.382-26.6-15.45-40.786-21.365c-0.001,0-0.001-0.001-0.001-0.001l-0.001-0.001v-0.001
				c-93.335-40.116-209.095-16.922-279.437,56.424c-84.611,85.115-98.022,221.151-30.606,320.73
				c0.013,0.021,0.028,0.043,0.041,0.064c0.802,1.234,1.593,2.476,2.427,3.681c0,0.001,0.001,0.001,0.001,0.002
				c0.035,0.052,0.073,0.1,0.109,0.152c0.002,0.003,0.004,0.006,0.006,0.01c4.053,5.748,8.233,11.421,12.672,16.87
				c0.001,0.001,0.001,0.002,0.002,0.002c0.307,0.377,0.592,0.776,0.894,1.158c0.001,0,0.001,0.001,0.002,0.002
				c0.01,0.011,0.018,0.021,0.028,0.032c4.816,5.693,9.895,11.161,15.124,16.454c0.027,0.028,0.055,0.057,0.083,0.085
				c0.001,0.002,0.002,0.002,0.003,0.004c1.529,1.533,3.118,2.991,4.683,4.482v0.001c3.995,3.81,8.102,7.483,12.318,11.01
				c0,0.001,0.001,0.001,0.002,0.002c1.726,1.444,3.443,2.9,5.206,4.298c0.001,0,0.002,0.001,0.002,0.001
				c5.185,4.105,10.507,8.03,15.99,11.719c0.001,0,0.001,0.001,0.002,0.001c0.671,0.454,1.317,0.944,1.982,1.404
				c0,0,0.001,0.001,0.001,0.001c7.947,5.095,16.09,9.916,24.542,14.125c0.006,0.004,0.014,0.007,0.021,0.01
				c4.856,2.494,9.815,4.769,14.803,6.981c0.001,0.001,0.003,0.002,0.004,0.002c2.093,0.875,4.162,1.802,6.267,2.651v0.001
				c5.877,2.259,11.765,4.481,17.768,6.39l0.001,0.001c1.047,0.334,2.068,0.741,3.121,1.061h0.001
				c8.969,2.69,18.087,4.928,27.313,6.553c0,0.001,0.001,0.001,0.002,0.001c5.45,0.95,10.895,1.88,16.4,2.536
				c0.001,0,0.001,0,0.002,0c8.378,1.064,16.816,1.563,25.258,1.803c0,0,0,0,0.001,0c3.789,0.247,7.573,0.097,11.367-0.053
				c0.005,0,0.011-0.001,0.015-0.001c2.315-0.119,4.632-0.267,6.947-0.388c0.004,0,0.009,0,0.013,0
				c3.542-0.162,7.067-0.181,10.609-0.513c0.002,0,0.003-0.001,0.004-0.001c11.125-1.499,22.352-2.725,33.258-5.508
				c0.005-0.002,0.011-0.003,0.016-0.004c2.623-0.669,5.244-1.376,7.867-2.069c0.001,0,0.001,0,0.002-0.001
				c6.979-1.489,13.725-3.816,20.491-6.065c0.001-0.001,0.002-0.001,0.003-0.001C934.322,641.941,1006.178,523.044,988.577,404.843z
				"/>
			<path style="fill:#05F283;" d="M649.581,680.567c2.95,1.062,5.92,2.068,8.908,3.02c-3.991-1.271-7.931-2.675-11.849-4.139
				C647.623,679.815,648.595,680.212,649.581,680.567z"/>
		</g>
	</g>
	<g>
		<path d="M112.9,911.668h-12.138L23.594,779.99v131.677h-9.321V767.089h11.006l78.299,132.323V767.089h9.321V911.668z"/>
		<path d="M232.768,911.668h-8.669v-16.259c-5.779,11.862-18.642,17.786-38.587,17.786c-13.435,0-23.263-2.422-29.477-7.267
			c-6.214-4.845-9.321-12.678-9.321-23.526c0-12.704,3.252-21.235,9.755-25.567c6.504-4.344,16.542-6.504,30.128-6.504h36.849
			c-0.145-11.704-0.579-18.931-1.303-21.683c-1.876-6.648-7.366-10.756-16.47-12.349c-4.048-0.724-8.886-1.093-14.521-1.093
			c-6.365,0-11.638,0.369-15.824,1.093c-4.193,0.724-8.097,2.738-11.71,6.069c-3.614,3.318-5.417,8.018-5.417,14.087h-8.669
			c0-6.069,1.191-11.204,3.574-15.39c2.389-4.187,5.747-7.293,10.084-9.321c4.331-2.027,8.847-3.436,13.547-4.226
			c4.693-0.79,10.078-1.198,16.147-1.198c4.911,0,9.321,0.29,13.224,0.869c3.897,0.579,7.221,1.382,9.966,2.383
			c2.745,1.014,5.128,2.278,7.155,3.792c2.021,1.527,3.614,3.225,4.772,5.095c1.152,1.883,2.093,3.91,2.817,6.069
			c0.717,2.172,1.191,4.45,1.409,6.833s0.395,4.911,0.54,7.583c0.145,2.686,0.145,5.385,0,8.136c0,1.883,0,3.318,0,4.331V911.668z
			 M223.447,858.784h-37.718c-10.262,0-17.773,1.514-22.539,4.555c-4.772,3.028-7.155,9.321-7.155,18.852
			c0,8.096,2.166,13.876,6.504,17.338c4.331,3.476,11.776,5.2,22.328,5.2c8.669,0,15.673-0.974,21.025-2.923
			c5.345-1.948,9.281-5.121,11.809-9.532c2.528-4.41,4.154-9.071,4.878-13.981S223.592,866.88,223.447,858.784z"/>
		<path d="M338.543,883.271c0,19.945-11.131,29.924-33.38,29.924c-10.986,0-19.149-2.317-24.494-6.938
			c-5.352-4.634-8.024-12.283-8.024-22.986v-66.76h-17.773v-8.452h17.773v-40.97h9.321v40.97h47.908v8.452h-47.908v66.76
			c0,8.097,1.843,13.665,5.529,16.693c3.686,3.041,9.716,4.555,18.102,4.555c8.38,0,14.521-1.632,18.425-4.884
			c3.897-3.252,5.852-8.702,5.852-16.364H338.543z"/>
		<path d="M373.872,772.289c0,4.779-2.31,7.162-6.931,7.162c-4.628,0-6.938-2.383-6.938-7.162c0-4.476,2.31-6.714,6.938-6.714
			C371.561,765.575,373.872,767.813,373.872,772.289z M371.489,911.668h-9.321V808.058h9.321V911.668z"/>
		<path d="M484.202,808.058l-39.666,103.609h-10.4l-39.884-103.609H404l35.559,92.959l34.894-92.959H484.202z"/>
		<path d="M589.332,860.732h-76.95c0,6.504,0.184,11.704,0.546,15.601c0.355,3.91,1.152,7.886,2.383,11.928
			c1.224,4.042,3.068,7.083,5.529,9.11c2.455,2.014,5.852,3.673,10.183,4.976c4.338,1.303,9.683,1.948,16.042,1.948
			c21.242,0,31.866-7.004,31.866-21.025h8.669c0,19.945-13.586,29.924-40.753,29.924c-9.538,0-17.233-1.053-23.085-3.146
			c-5.852-2.093-10.295-5.595-13.33-10.519c-3.035-4.911-5.022-10.295-5.964-16.14c-0.941-5.858-1.409-13.626-1.409-23.302
			c0-9.545,0.467-17.233,1.409-23.092c0.941-5.845,2.857-11.309,5.747-16.364c2.89-5.055,7.261-8.702,13.112-10.94
			c5.852-2.251,13.474-3.37,22.868-3.37c7.662,0,14.126,0.843,19.405,2.501c5.273,1.659,9.459,3.857,12.573,6.609
			c3.1,2.738,5.49,6.569,7.149,11.48c1.659,4.924,2.745,9.874,3.252,14.85C589.082,846.751,589.332,853.07,589.332,860.732z
			 M580.228,852.28c0-13.442-2.383-23.013-7.149-28.726c-4.772-5.701-13.731-8.557-26.883-8.557
			c-12.862,0-21.709,2.896-26.554,8.676c-4.838,5.779-7.261,15.311-7.261,28.608H580.228z"/>
		<path d="M729.79,839.273c0,21.104-0.724,35.19-2.166,42.273c-3.035,13.863-10.697,23.118-22.98,27.739
			c-7.511,2.751-17.2,4.121-29.042,4.121c-23.993,0-39.601-6.135-46.822-18.431c-4.628-7.794-7.083-21.235-7.372-40.312
			c0-1.738,0-6.859,0-15.39c0-20.946,0.724-34.967,2.172-42.049c3.035-13.731,10.618-22.907,22.756-27.528
			c7.511-2.751,17.266-4.121,29.266-4.121c23.987,0,39.587,6.069,46.815,18.207c4.628,7.662,7.083,20.959,7.372,39.89
			C729.79,825.397,729.79,830.597,729.79,839.273z M720.252,839.484c0-20.222-0.652-33.374-1.948-39.443
			c-2.462-11.414-8.748-18.866-18.859-22.328c-6.069-2.172-14.021-3.252-23.842-3.252c-19.656,0-32.445,4.766-38.37,14.31
			c-4.048,6.359-6.142,18.128-6.286,35.322c0,1.448,0,6.583,0,15.39c0,1.014,0,2.462,0,4.344c0,5.635,0,9.821,0,12.573
			c0,2.738,0.145,6.359,0.434,10.835c0.29,4.476,0.685,7.767,1.191,9.861c0.507,2.093,1.264,4.766,2.278,8.018
			c1.007,3.252,2.238,5.608,3.686,7.043c1.442,1.448,3.285,3.146,5.523,5.095c2.238,1.962,4.845,3.331,7.807,4.121
			c2.962,0.803,6.425,1.488,10.4,2.067c3.976,0.579,8.419,0.856,13.336,0.856c4.911,0,9.354-0.276,13.33-0.856
			c3.969-0.579,7.438-1.264,10.4-2.067c2.962-0.79,5.562-2.159,7.807-4.121c2.238-1.948,4.081-3.647,5.529-5.095
			c1.442-1.435,2.673-3.818,3.68-7.149c1.014-3.318,1.771-5.964,2.278-7.912c0.507-1.948,0.902-5.24,1.191-9.861
			c0.29-4.621,0.434-8.202,0.434-10.73c0-2.528,0-6.754,0-12.678C720.252,841.945,720.252,840.497,720.252,839.484z"/>
		<path d="M853.134,859.863c0,7.372-0.217,13.402-0.652,18.102s-1.448,9.505-3.035,14.416c-1.593,4.911-3.871,8.742-6.826,11.493
			c-2.962,2.738-7.01,4.976-12.138,6.714c-5.134,1.738-11.454,2.607-18.971,2.607c-17.483,0-29.549-5.569-36.198-16.693v56.57
			h-9.321V808.058h8.886v15.614c6.648-11.572,18.859-17.352,36.632-17.352c9.248,0,16.726,1.198,22.44,3.581
			c5.707,2.383,9.933,6.214,12.678,11.493c2.745,5.266,4.516,10.69,5.312,16.259C852.733,843.209,853.134,850.621,853.134,859.863z
			 M843.813,859.653c0-5.055-0.072-9.071-0.217-12.033c-0.145-2.962-0.54-6.398-1.191-10.295c-0.652-3.91-1.626-6.978-2.929-9.216
			c-1.297-2.238-3.067-4.437-5.312-6.609c-2.238-2.172-5.167-3.726-8.775-4.66c-3.614-0.935-7.879-1.409-12.79-1.409
			c-14.166,0-23.954,3.146-29.371,9.426c-5.417,6.293-8.129,17.878-8.129,34.795c0,17.049,2.745,28.753,8.235,35.111
			c5.496,6.359,15.245,9.531,29.266,9.531c5.779,0,10.69-0.829,14.738-2.488c4.048-1.659,7.155-3.607,9.321-5.845
			c2.166-2.251,3.792-5.569,4.878-9.979c1.086-4.41,1.738-8.373,1.948-11.914C843.701,870.527,843.813,865.722,843.813,859.653z"/>
		<path d="M963.023,882.402c0,11.138-3.436,19.076-10.295,23.855c-6.866,4.766-17.595,7.07-32.189,6.938
			c-14.6-0.158-24.928-2.396-30.997-6.727c-6.069-4.331-9.104-12.059-9.104-23.197h8.669c0,8.097,2.199,13.665,6.609,16.693
			c4.41,3.041,12.606,4.555,24.606,4.555c11.993,0,20.557-1.619,25.685-4.871s7.695-8.834,7.695-16.786
			c0-6.78-1.376-11.401-4.121-13.85s-8.452-4.042-17.128-4.766c-3.153-0.316-7.603-0.645-13.336-0.974
			c-5.74-0.316-9.973-0.566-12.698-0.75c-2.725-0.184-5.97-0.777-9.722-1.79c-3.765-1.014-6.504-2.422-8.241-4.226
			c-1.731-1.804-3.252-4.41-4.549-7.807c-1.303-3.397-1.955-7.544-1.955-12.467c0-11.125,3.324-18.918,9.973-23.408
			c6.648-4.476,17.411-6.635,32.301-6.504c15.456,0,26.08,2.962,31.86,8.886c4.476,4.779,6.721,11.704,6.721,20.814h-8.886
			c0-7.517-2.133-12.902-6.392-16.154c-4.266-3.252-11.961-4.871-23.085-4.871c-12,0-20.485,1.474-25.474,4.41
			c-4.983,2.949-7.55,7.925-7.695,14.956c-0.145,7.465,1.159,12.309,3.91,14.534c2.745,2.225,8.241,3.765,16.483,4.634
			c3.298,0.237,7.748,0.566,13.343,0.974c5.595,0.421,9.828,0.724,12.698,0.935s6.221,0.829,10.045,1.856
			c3.824,1.014,6.642,2.436,8.445,4.252c1.804,1.817,3.397,4.476,4.766,7.978C962.339,873.015,963.023,877.32,963.023,882.402z"/>
	</g>
</g>
<g>
	<g>
		<g>
			<path style="fill:#5E66F2;" d="M-246.631,514.317c-0.289,0.075-0.505,0.133-0.856,0.204c-0.001,0-0.001,0-0.002,0
				c-1.466,0.231-2.825,0.454-4.309,0.619c0,0-0.001,0-0.001,0c-0.65,0.062-1.243,0.069-1.867,0.097c-0.001,0-0.002,0-0.003,0
				c-0.858,0.048-1.752,0.132-2.705,0.089c0.08,0.004,0.161,0.004,0.241,0.007v-0.001c-0.235-0.005-0.471-0.01-0.706-0.023h0
				c-1.064-0.035-2.141-0.077-3.195-0.181c0,0-0.001,0-0.001,0c-0.401-0.038-0.8-0.084-1.198-0.132c0,0-0.001,0-0.001,0
				c-2.56-0.32-5.137-0.831-7.603-1.584c-0.192-0.059-0.382-0.124-0.571-0.191c-1.028-0.335-2.05-0.704-3.057-1.101
				c-0.366-0.147-0.729-0.304-1.091-0.46c-0.001,0-0.001-0.001-0.002-0.001c-0.029-0.012-0.087-0.038-0.116-0.05l0.001-0.002l0,0
				l-0.001,0.002c-0.826-0.368-1.65-0.749-2.457-1.163v0c-1.474-0.729-2.995-1.624-4.263-2.458v0
				c-0.131-0.086-0.257-0.176-0.404-0.282c-0.924-0.635-1.836-1.296-2.722-1.998c0,0,0,0,0,0c-0.307-0.243-0.609-0.497-0.909-0.749
				c0,0,0,0,0,0v0c-0.723-0.612-1.449-1.255-2.14-1.913v0c-0.272-0.258-0.557-0.523-0.818-0.786c0,0,0,0,0,0l0,0
				c-1.006-1.009-1.843-1.927-2.643-2.878c0,0,0-0.001-0.001-0.001c-0.002-0.002-0.003-0.004-0.005-0.005l0,0
				c-0.081-0.097-0.16-0.197-0.24-0.302c-0.753-0.926-1.464-1.88-2.145-2.863c0,0,0,0,0,0c-1.002-1.479-1.932-3.017-2.78-4.592
				c0,0,0-0.001,0-0.001c-0.619-1.185-1.189-2.358-1.7-3.575l-0.013-0.028c-3.565-8.557-4.371-17.851-2.335-26.788
				c-0.232,0.175-0.466,0.348-0.694,0.529v0c-0.271,0.214-0.535,0.438-0.801,0.66c0,0,0,0,0,0c-0.607,0.522-1.214,1.046-1.794,1.602
				c0,0,0,0,0,0v0c-0.241,0.229-0.486,0.454-0.721,0.69v0c0,0,0,0,0,0c-0.773,0.795-1.542,1.59-2.25,2.445c0,0,0,0,0,0
				c-0.049,0.059-0.093,0.123-0.141,0.183c0,0,0,0,0,0c-0.663,0.805-1.29,1.647-1.89,2.513c0,0,0,0,0,0
				c-0.194,0.287-0.38,0.58-0.573,0.868c0,0,0,0,0,0c-0.454,0.696-0.886,1.411-1.298,2.143c0,0,0,0,0,0
				c-0.17,0.302-0.338,0.606-0.506,0.91c0,0,0,0,0,0c-0.534,1.023-1.028,2.084-1.495,3.147v0c0,0.001-0.001,0.002-0.002,0.003
				c-0.001,0.002-0.002,0.004-0.003,0.006c-8.077,19.058,1.317,41.71,20.479,49.481c0,0,0,0,0,0c1.193,0.468,2.396,0.92,3.62,1.291
				c0,0,0,0,0,0c0.394,0.12,0.792,0.192,1.189,0.297c0,0,0,0,0,0c0.82,0.215,1.641,0.442,2.471,0.609
				c-0.207-0.04-0.412-0.094-0.618-0.141c0.206,0.048,0.412,0.101,0.618,0.141c0,0,0,0,0.001,0c0.485,0.095,0.972,0.139,1.458,0.214
				v0c0,0,0,0,0,0c0.406,0.062,0.81,0.131,1.217,0.188c0.001,0,0.002,0,0.003,0c0.332,0.049,0.665,0.095,0.997,0.127c0,0,0,0,0,0
				c2.68,0.188,5.375,0.233,8.044-0.124c0,0,0,0,0,0c0.81-0.098,1.614-0.223,2.413-0.372c0,0,0,0,0,0
				c0.3-0.056,0.603-0.104,0.902-0.167c0,0,0,0,0,0c1.063-0.232,2.119-0.499,3.163-0.805c0,0,0,0,0,0
				c1.039-0.344,2.079-0.689,3.093-1.102c0,0,0,0,0,0c0.317-0.132,0.634-0.267,0.95-0.401v0c0,0,0,0,0,0
				c1.013-0.472,2.031-0.935,3.02-1.456c0,0,0,0,0,0c0.948-0.532,1.892-1.071,2.804-1.665c0,0,0,0,0,0
				c0.108-0.071,0.21-0.153,0.318-0.225c0,0,0,0,0,0c1.079-0.745,2.142-1.516,3.139-2.371v0c0,0,0,0,0.001,0
				c0.614-0.52,1.201-1.077,1.804-1.611c0,0,0.001-0.001,0.001-0.001c0.238-0.226,0.479-0.448,0.712-0.681c0,0,0,0,0,0
				c0.784-0.786,1.541-1.598,2.255-2.451c0,0,0,0,0,0c0.046-0.054,0.086-0.114,0.131-0.169c0,0,0,0,0,0
				c0.348-0.422,0.686-0.856,1.015-1.298c0,0,0,0,0,0c0.002-0.002,0.003-0.004,0.005-0.007L-246.631,514.317z"/>
			<path style="fill:#5E66F2;" d="M-254.537,508.754c-0.097,0.006-0.194,0.011-0.29,0.016c0.193-0.011,0.386-0.022,0.58-0.032
				C-254.344,508.743-254.44,508.748-254.537,508.754z"/>
			<polygon style="fill:#5E66F2;" points="-256.085,508.81 -256.088,508.811 -256.085,508.811 			"/>
			<path style="fill:#5E66F2;" d="M-253.985,508.723C-253.985,508.723-253.985,508.723-253.985,508.723
				C-253.985,508.723-253.985,508.723-253.985,508.723c-0.004,0-0.008,0-0.012,0.001
				C-253.993,508.723-253.989,508.723-253.985,508.723C-253.985,508.723-253.985,508.723-253.985,508.723z"/>
		</g>
		<path style="fill:#05C7F2;" d="M-252.546,507.188c-18.328-12.593-24.5-38.695-12.893-58.31c1.25-2.195,2.642-4.23,4.163-6.087
			c2.604-3.203,5.991-6.256,9.442-8.594c0.354-0.262,0.734-0.5,1.112-0.739c-16.868-2.498-33.806,7.231-40.2,22.982
			c-3.834,9.172-3.863,19.794-0.007,28.985c0.001,0.002,0.002,0.004,0.003,0.006c0,0,0,0,0,0c0.19,0.46,0.397,0.909,0.606,1.356
			c0,0,0,0,0,0.001c0,0,0,0,0,0c0.001,0.001,0.001,0.002,0.002,0.004c0.06,0.137,0.12,0.273,0.19,0.404
			c0.001,0.002,0.002,0.003,0.003,0.005c0,0,0,0,0,0.001c0.232,0.459,0.456,0.925,0.694,1.38c0,0,0,0,0,0
			c0.161,0.306,0.333,0.602,0.501,0.903c0,0,0,0,0,0c0.421,0.727,0.866,1.434,1.3,2.15c0,0,0,0,0-0.001c0,0,0,0.001,0.001,0.001
			c0,0,0,0,0,0c0,0,0,0.001,0.001,0.001c0,0,0,0.001,0.001,0.001c0,0,0,0,0,0c0.188,0.289,0.373,0.58,0.568,0.863c0,0,0,0,0,0
			c0.61,0.854,1.234,1.701,1.891,2.519c0,0,0,0,0,0c0.048,0.058,0.09,0.121,0.139,0.179c0,0,0,0,0,0
			c0.94,1.086,1.905,2.15,2.956,3.125v0c0.592,0.564,1.199,1.108,1.823,1.63c0,0,0,0,0,0c0.257,0.215,0.513,0.432,0.775,0.64
			c0,0,0.001,0.001,0.001,0.001c0.001,0.001,0.002,0.001,0.003,0.002c0.568,0.434,1.14,0.86,1.719,1.279c0,0,0,0,0,0c0,0,0,0,0,0
			c0.216,0.151,0.43,0.306,0.647,0.456c0,0,0,0,0,0c0.1,0.067,0.195,0.14,0.294,0.209c0,0,0,0,0,0
			c0.044,0.029,0.09,0.056,0.135,0.084c0.882,0.55,1.767,1.098,2.683,1.591c0,0,0,0,0,0c0.271,0.147,0.549,0.28,0.823,0.42
			c0,0,0,0,0,0c0.73,0.353,1.465,0.696,2.2,1.037c0,0,0,0,0.001,0c0.31,0.13,0.619,0.264,0.93,0.393c0,0,0,0,0,0
			c0.002,0.001,0.004,0.001,0.005,0.002c0.865,0.347,1.748,0.647,2.63,0.946c0,0,0,0,0,0c1.187,0.403,2.41,0.691,3.633,0.966
			c0.001,0,0.002,0,0.003,0.001c0.293,0.056,0.587,0.109,0.881,0.163l0,0c0.361,0.067,0.725,0.123,1.087,0.186
			c0.001,0,0.003,0,0.004,0.001c0.443,0.068,0.886,0.13,1.33,0.188c-0.001,0-0.002,0-0.003,0c0.002,0,0.004,0,0.006,0.001
			c0.003,0,0.006,0.001,0.009,0.001c0,0,0,0,0,0c0.341,0.041,0.681,0.081,1.024,0.113h0c0.447,0.037,0.895,0.066,1.343,0.101
			c0.001,0,0.002,0,0.002,0c-0.001,0-0.001,0-0.002,0c0.46,0.024,0.92,0.034,1.38,0.054h0c0.898,0.053,1.798-0.016,2.695-0.064
			c0.001,0,0.001,0,0.002,0c0.003,0,0.007,0,0.01-0.001c0.001,0,0.001,0,0.002,0c0.53-0.028,1.058-0.027,1.587-0.077c0,0,0,0,0,0
			c0.563-0.07,1.125-0.141,1.686-0.232C-251.336,508.022-251.955,507.606-252.546,507.188z"/>
		<path style="fill:#04D9B2;" d="M-196.729,448.149c-0.999-1.332-2.094-2.592-3.253-3.788c0,0,0,0,0,0
			c-8.765-9.056-22.438-13.156-34.794-10.454c0,0-0.001,0-0.001,0c0,0-0.001,0-0.001,0c-2.281,0.479-4.51,1.181-6.66,2.079
			c-27.051,11.287-31.609,47.451-8.354,65.133c-5.4-22.471,9.12-46.735,31.624-52.459c0.145-0.04,0.291-0.076,0.436-0.11
			c3.728-1.049,7.686-1.476,11.589-1.493c0.192,0.004,0.385,0.012,0.576,0.022c2.985,0.068,5.925,0.43,8.841,1.074
			C-196.727,448.151-196.728,448.15-196.729,448.149z"/>
		<g>
			<path style="fill:#05F283;" d="M-168.966,486.167c-0.448-3.16-1.292-6.24-2.518-9.2c0,0,0,0,0,0
				c-0.018-0.045-0.039-0.087-0.058-0.131c-0.077-0.171-0.151-0.344-0.23-0.514c0,0,0,0,0,0c-0.074-0.167-0.153-0.329-0.227-0.494
				c-0.192-0.417-0.386-0.832-0.59-1.24c-0.277-0.572-0.576-1.133-0.893-1.682c0,0,0,0,0,0c0,0,0,0,0,0c0,0,0,0,0,0
				c0,0,0-0.001-0.001-0.001c-0.413-0.737-0.847-1.456-1.304-2.157c0,0,0,0,0,0c-0.187-0.287-0.372-0.577-0.566-0.858c0,0,0,0,0,0
				c-0.609-0.861-1.239-1.706-1.897-2.526c0,0,0,0,0,0c-0.046-0.056-0.088-0.116-0.133-0.172c0,0,0,0,0,0
				c-0.724-0.846-1.48-1.667-2.26-2.459c0,0,0,0,0,0c-0.227-0.227-0.463-0.444-0.695-0.665l0,0c-0.612-0.54-1.207-1.103-1.827-1.633
				c0,0,0,0,0,0c-0.257-0.215-0.512-0.432-0.774-0.639c0,0,0,0,0,0c-0.772-0.611-1.563-1.194-2.376-1.742c0,0,0,0,0,0
				c-0.097-0.065-0.189-0.138-0.286-0.203c-0.001-0.001-0.001-0.001-0.002-0.002c-0.001,0-0.002-0.001-0.002-0.001
				c-0.001,0-0.001-0.001-0.002-0.001c-0.098-0.064-0.202-0.115-0.3-0.178c0,0,0,0,0,0c-1.912-1.244-3.946-2.292-6.051-3.17
				c0,0,0,0,0,0l0,0v0c-13.847-5.951-31.021-2.51-41.456,8.371c-12.553,12.627-14.542,32.809-4.541,47.582
				c0.002,0.003,0.004,0.006,0.006,0.009c0.119,0.183,0.236,0.367,0.36,0.546c0,0,0,0,0,0c0.005,0.008,0.011,0.015,0.016,0.023
				c0,0,0.001,0.001,0.001,0.001c0.601,0.853,1.221,1.694,1.88,2.503c0,0,0,0,0,0c0.045,0.056,0.088,0.115,0.133,0.172c0,0,0,0,0,0
				c0.001,0.002,0.003,0.003,0.004,0.005c0.714,0.845,1.468,1.656,2.244,2.441c0.004,0.004,0.008,0.009,0.012,0.013c0,0,0,0,0,0.001
				c0.227,0.227,0.463,0.444,0.695,0.665v0c0.593,0.565,1.202,1.11,1.827,1.633c0,0,0,0,0,0c0.256,0.214,0.511,0.43,0.772,0.638
				c0,0,0,0,0,0c0.769,0.609,1.559,1.191,2.372,1.739c0,0,0,0,0,0c0.099,0.067,0.195,0.14,0.294,0.208c0,0,0,0,0,0
				c1.179,0.756,2.387,1.471,3.641,2.096c0.001,0.001,0.002,0.001,0.003,0.002c0.72,0.37,1.456,0.708,2.196,1.036c0,0,0,0,0.001,0
				c0.311,0.13,0.617,0.267,0.93,0.393v0c0.872,0.335,1.745,0.665,2.636,0.948l0,0c0.155,0.049,0.307,0.11,0.463,0.157h0
				c1.331,0.399,2.683,0.731,4.052,0.972c0,0,0,0,0,0c0.808,0.141,1.616,0.279,2.433,0.376c0,0,0,0,0,0
				c1.243,0.158,2.495,0.232,3.747,0.268c0,0,0,0,0,0c0.562,0.037,1.123,0.014,1.686-0.008c0.001,0,0.002,0,0.002,0
				c0.343-0.018,0.687-0.04,1.031-0.057c0.001,0,0.001,0,0.002,0c0.525-0.024,1.048-0.027,1.574-0.076c0,0,0,0,0.001,0
				c1.65-0.222,3.316-0.404,4.934-0.817c0.001,0,0.002,0,0.002-0.001c0.389-0.099,0.778-0.204,1.167-0.307c0,0,0,0,0,0
				c1.035-0.221,2.036-0.566,3.04-0.9c0,0,0,0,0,0C-177.015,521.342-166.355,503.703-168.966,486.167z"/>
			<path style="fill:#05F283;" d="M-219.258,527.072c0.438,0.158,0.878,0.307,1.322,0.448c-0.592-0.189-1.177-0.397-1.758-0.614
				C-219.548,526.961-219.404,527.02-219.258,527.072z"/>
		</g>
	</g>
	<g>
		<path d="M-298.878,561.357h-1.801l-11.448-19.535v19.535h-1.383v-21.449h1.633l11.616,19.631v-19.631h1.383V561.357z"/>
		<path d="M-281.095,561.357h-1.286v-2.412c-0.857,1.76-2.766,2.639-5.725,2.639c-1.993,0-3.451-0.359-4.373-1.078
			s-1.383-1.881-1.383-3.49c0-1.885,0.482-3.15,1.447-3.793c0.965-0.645,2.454-0.965,4.47-0.965h5.467
			c-0.021-1.736-0.086-2.809-0.193-3.217c-0.278-0.986-1.093-1.596-2.443-1.832c-0.601-0.107-1.318-0.162-2.154-0.162
			c-0.944,0-1.727,0.055-2.348,0.162c-0.622,0.107-1.201,0.406-1.737,0.9c-0.536,0.492-0.804,1.189-0.804,2.09h-1.286
			c0-0.9,0.177-1.662,0.53-2.283c0.354-0.621,0.853-1.082,1.496-1.383c0.643-0.301,1.312-0.51,2.01-0.627
			c0.696-0.117,1.495-0.178,2.396-0.178c0.729,0,1.383,0.043,1.962,0.129c0.578,0.086,1.071,0.205,1.479,0.354
			c0.407,0.15,0.761,0.338,1.062,0.562c0.3,0.227,0.536,0.479,0.708,0.756c0.171,0.279,0.311,0.58,0.418,0.9
			c0.106,0.322,0.177,0.66,0.209,1.014s0.059,0.729,0.08,1.125c0.021,0.398,0.021,0.799,0,1.207c0,0.279,0,0.492,0,0.643V561.357z
			 M-282.478,553.512h-5.596c-1.522,0-2.637,0.225-3.344,0.676c-0.708,0.449-1.062,1.383-1.062,2.797
			c0,1.201,0.321,2.059,0.965,2.572c0.643,0.516,1.747,0.771,3.312,0.771c1.286,0,2.325-0.145,3.119-0.434
			c0.793-0.289,1.377-0.76,1.752-1.414s0.616-1.346,0.724-2.074S-282.456,554.713-282.478,553.512z"/>
		<path d="M-265.402,557.145c0,2.959-1.651,4.439-4.952,4.439c-1.63,0-2.841-0.344-3.634-1.029c-0.794-0.688-1.19-1.822-1.19-3.41
			v-9.904h-2.637v-1.254h2.637v-6.078h1.383v6.078h7.107v1.254h-7.107v9.904c0,1.201,0.273,2.027,0.82,2.477
			c0.547,0.451,1.441,0.676,2.686,0.676c1.243,0,2.154-0.242,2.733-0.725c0.578-0.482,0.868-1.291,0.868-2.428H-265.402z"/>
		<path d="M-260.161,540.68c0,0.709-0.343,1.062-1.028,1.062c-0.687,0-1.029-0.354-1.029-1.062c0-0.664,0.343-0.996,1.029-0.996
			C-260.504,539.684-260.161,540.016-260.161,540.68z M-260.515,561.357h-1.383v-15.371h1.383V561.357z"/>
		<path d="M-243.793,545.986l-5.885,15.371h-1.543l-5.917-15.371h1.446l5.275,13.791l5.177-13.791H-243.793z"/>
		<path d="M-228.196,553.801h-11.416c0,0.965,0.027,1.736,0.081,2.314c0.053,0.58,0.171,1.17,0.354,1.77
			c0.182,0.6,0.455,1.051,0.82,1.352c0.364,0.299,0.868,0.545,1.511,0.738c0.644,0.193,1.437,0.289,2.38,0.289
			c3.151,0,4.728-1.039,4.728-3.119h1.286c0,2.959-2.016,4.439-6.046,4.439c-1.415,0-2.557-0.156-3.425-0.467
			s-1.527-0.83-1.978-1.561c-0.45-0.729-0.745-1.527-0.885-2.395c-0.14-0.869-0.209-2.021-0.209-3.457
			c0-1.416,0.069-2.557,0.209-3.426c0.14-0.867,0.424-1.678,0.853-2.428s1.077-1.291,1.945-1.623c0.868-0.334,1.999-0.5,3.393-0.5
			c1.137,0,2.096,0.125,2.879,0.371c0.782,0.246,1.403,0.572,1.865,0.98c0.46,0.406,0.814,0.975,1.061,1.703
			c0.246,0.73,0.407,1.465,0.482,2.203C-228.233,551.727-228.196,552.664-228.196,553.801z M-229.547,552.547
			c0-1.994-0.354-3.414-1.061-4.262c-0.708-0.846-2.037-1.27-3.988-1.27c-1.908,0-3.221,0.43-3.939,1.287
			c-0.718,0.857-1.077,2.271-1.077,4.244H-229.547z"/>
		<path d="M-207.358,550.617c0,3.131-0.107,5.221-0.321,6.271c-0.45,2.057-1.587,3.43-3.409,4.115
			c-1.114,0.408-2.552,0.611-4.309,0.611c-3.56,0-5.875-0.91-6.946-2.734c-0.687-1.156-1.051-3.15-1.094-5.98
			c0-0.258,0-1.018,0-2.283c0-3.107,0.107-5.188,0.322-6.238c0.45-2.037,1.575-3.398,3.376-4.084
			c1.114-0.408,2.562-0.611,4.342-0.611c3.559,0,5.873,0.9,6.945,2.701c0.687,1.137,1.051,3.109,1.094,5.918
			C-207.358,548.559-207.358,549.33-207.358,550.617z M-208.773,550.648c0-3-0.097-4.951-0.289-5.852
			c-0.365-1.693-1.298-2.799-2.798-3.312c-0.9-0.322-2.08-0.482-3.537-0.482c-2.916,0-4.813,0.707-5.692,2.123
			c-0.601,0.943-0.911,2.689-0.933,5.24c0,0.215,0,0.977,0,2.283c0,0.15,0,0.365,0,0.645c0,0.836,0,1.457,0,1.865
			c0,0.406,0.021,0.943,0.064,1.607s0.102,1.152,0.177,1.463s0.188,0.707,0.338,1.189c0.149,0.482,0.332,0.832,0.547,1.045
			c0.214,0.215,0.487,0.467,0.819,0.756c0.332,0.291,0.719,0.494,1.158,0.611c0.439,0.119,0.953,0.221,1.543,0.307
			s1.249,0.127,1.979,0.127c0.729,0,1.388-0.041,1.978-0.127c0.589-0.086,1.104-0.188,1.543-0.307
			c0.439-0.117,0.825-0.32,1.158-0.611c0.332-0.289,0.605-0.541,0.82-0.756c0.214-0.213,0.396-0.566,0.546-1.061
			c0.15-0.492,0.263-0.885,0.338-1.174s0.134-0.777,0.177-1.463s0.064-1.217,0.064-1.592s0-1.002,0-1.881
			C-208.773,551.014-208.773,550.799-208.773,550.648z"/>
		<path d="M-189.06,553.672c0,1.094-0.032,1.988-0.097,2.686s-0.215,1.41-0.45,2.139c-0.236,0.729-0.574,1.297-1.013,1.705
			c-0.439,0.406-1.04,0.738-1.801,0.996c-0.762,0.258-1.699,0.387-2.814,0.387c-2.594,0-4.384-0.826-5.37-2.477v8.393h-1.383
			v-21.514h1.318v2.316c0.986-1.717,2.798-2.574,5.435-2.574c1.372,0,2.481,0.178,3.329,0.531c0.847,0.354,1.474,0.922,1.881,1.705
			c0.407,0.781,0.67,1.586,0.788,2.412C-189.119,551.201-189.06,552.301-189.06,553.672z M-190.442,553.641
			c0-0.75-0.011-1.346-0.032-1.785s-0.08-0.949-0.177-1.527c-0.097-0.58-0.241-1.035-0.435-1.367
			c-0.192-0.332-0.455-0.658-0.788-0.98c-0.332-0.322-0.767-0.553-1.302-0.691c-0.536-0.139-1.169-0.209-1.897-0.209
			c-2.102,0-3.554,0.467-4.357,1.398c-0.804,0.934-1.206,2.652-1.206,5.162c0,2.529,0.407,4.266,1.222,5.209
			c0.815,0.943,2.262,1.414,4.342,1.414c0.857,0,1.586-0.123,2.187-0.369s1.062-0.535,1.383-0.867
			c0.321-0.334,0.562-0.826,0.724-1.48s0.258-1.242,0.289-1.768C-190.459,555.254-190.442,554.541-190.442,553.641z"/>
		<path d="M-172.757,557.016c0,1.652-0.51,2.83-1.527,3.539c-1.019,0.707-2.61,1.049-4.775,1.029
			c-2.166-0.023-3.698-0.355-4.599-0.998s-1.351-1.789-1.351-3.441h1.286c0,1.201,0.326,2.027,0.98,2.477
			c0.654,0.451,1.87,0.676,3.65,0.676c1.779,0,3.05-0.24,3.811-0.723s1.142-1.311,1.142-2.49c0-1.006-0.204-1.691-0.611-2.055
			s-1.254-0.6-2.541-0.707c-0.468-0.047-1.128-0.096-1.979-0.145c-0.852-0.047-1.479-0.084-1.884-0.111s-0.886-0.115-1.442-0.266
			c-0.559-0.15-0.965-0.359-1.223-0.627c-0.257-0.268-0.482-0.654-0.675-1.158c-0.193-0.504-0.29-1.119-0.29-1.85
			c0-1.65,0.493-2.807,1.479-3.473c0.986-0.664,2.583-0.984,4.792-0.965c2.293,0,3.869,0.439,4.727,1.318
			c0.664,0.709,0.997,1.736,0.997,3.088h-1.318c0-1.115-0.316-1.914-0.948-2.396c-0.633-0.482-1.774-0.723-3.425-0.723
			c-1.78,0-3.039,0.219-3.779,0.654c-0.739,0.438-1.12,1.176-1.142,2.219c-0.021,1.107,0.172,1.826,0.58,2.156
			c0.407,0.33,1.223,0.559,2.445,0.688c0.489,0.035,1.149,0.084,1.979,0.145c0.83,0.062,1.458,0.107,1.884,0.139
			s0.923,0.123,1.49,0.275c0.567,0.15,0.985,0.361,1.253,0.631s0.504,0.664,0.707,1.184
			C-172.858,555.623-172.757,556.262-172.757,557.016z"/>
	</g>
</g>
<g>
</g>
<g>
</g>
<g>
</g>
<g>
</g>
<g>
</g>
<g>
</g>
</svg>
