<?xml version="1.0" encoding="UTF-8"?>
<svg xmlns="http://www.w3.org/2000/svg" id="vektorisiert" viewBox="0 0 376.98 149.46">
  <defs>
    <style>
      .cls-1 {
        fill: #f7154e;
      }

      .cls-2 {
        fill: #bee23d;
      }

      .cls-3 {
        fill: #e31e5d;
      }

      .cls-4 {
        fill: #574d52;
      }

      .cls-5 {
        fill: #d0d74d;
      }

      .cls-6 {
        fill: none;
      }
    </style>
  </defs>
  <path class="cls-3" d="m39.46,29.3c-4.41,0-7.98,3.57-7.98,7.98s3.57,7.98,7.98,7.98,7.98-3.57,7.98-7.98-3.57-7.98-7.98-7.98Z"></path>
  <g>
    <path class="cls-5" d="m159.41,37.27c0,4.41-3.57,7.98-7.98,7.98s-7.98-3.57-7.98-7.98,3.57-7.98,7.98-7.98,7.98,3.57,7.98,7.98Z"></path>
    <path class="cls-3" d="m154.09,37.27c0,1.47-1.19,2.66-2.66,2.66s-2.66-1.19-2.66-2.66,1.19-2.66,2.66-2.66,2.66,1.19,2.66,2.66Z"></path>
  </g>
  <g>
    <path class="cls-5" d="m127.43,37.3c0,7.35-5.96,13.3-13.3,13.3s-13.3-5.96-13.3-13.3,5.96-13.3,13.3-13.3,13.3,5.95,13.3,13.3Z"></path>
    <path class="cls-3" d="m114.13,29.32c-4.41,0-7.98,3.58-7.98,7.98s3.57,7.98,7.98,7.98,7.98-3.57,7.98-7.98-3.57-7.98-7.98-7.98Z"></path>
  </g>
  <path class="cls-5" d="m79.46,111.73c0,1.47-1.19,2.66-2.66,2.66s-2.66-1.19-2.66-2.66,1.19-2.66,2.66-2.66,2.66,1.19,2.66,2.66Z"></path>
  <g>
    <path class="cls-5" d="m225.73,24.08c-7.34,0-13.3,5.95-13.3,13.3s5.96,13.3,13.3,13.3,13.3-5.96,13.3-13.3-5.96-13.3-13.3-13.3Z"></path>
    <path class="cls-2" d="m228.39,37.38c0,1.47-1.19,2.66-2.66,2.66s-2.66-1.19-2.66-2.66,1.19-2.66,2.66-2.66,2.66,1.19,2.66,2.66Z"></path>
    <path class="cls-4" d="m223.07,37.38c0-1.46,1.19-2.66,2.66-2.66s2.66,1.2,2.66,2.66-1.19,2.66-2.66,2.66-2.66-1.19-2.66-2.66Z"></path>
  </g>
  <path class="cls-1" d="m5.32,37.27c0,1.47-1.19,2.66-2.66,2.66s-2.66-1.19-2.66-2.66,1.19-2.66,2.66-2.66,2.66,1.19,2.66,2.66Z"></path>
  <path class="cls-3" d="m0,37.27c0-1.47,1.19-2.66,2.66-2.66s2.66,1.19,2.66,2.66-1.19,2.66-2.66,2.66-2.66-1.19-2.66-2.66Z"></path>
  <path class="cls-4" d="m337.36,29.3c-4.4,0-7.98,3.57-7.98,7.98s3.57,7.98,7.98,7.98,7.98-3.57,7.98-7.98-3.57-7.98-7.98-7.98Z"></path>
  <path class="cls-4" d="m313.67,37.38c0-.46-.02-.91-.07-1.36-.68-6.7-6.34-11.94-13.23-11.94-7.34,0-13.3,5.96-13.3,13.3,0,.46.02.91.07,1.36.68,6.71,6.35,11.94,13.23,11.94,4.13,0,7.82-1.88,10.26-4.84,1.63-1.97,2.7-4.42,2.97-7.1.04-.45.07-.9.07-1.36Z"></path>
  <g>
    <path class="cls-5" d="m233.71,74.29c0,4.41-3.57,7.98-7.98,7.98s-7.97-3.57-7.97-7.98,3.57-7.98,7.97-7.98,7.98,3.57,7.98,7.98Z"></path>
    <path class="cls-2" d="m228.39,74.29c0,1.47-1.19,2.66-2.66,2.66s-2.66-1.19-2.66-2.66,1.19-2.66,2.66-2.66,2.66,1.19,2.66,2.66Z"></path>
    <path class="cls-4" d="m223.07,74.29c0-1.47,1.19-2.66,2.66-2.66s2.66,1.19,2.66,2.66-1.19,2.66-2.66,2.66-2.66-1.19-2.66-2.66Z"></path>
  </g>
  <path class="cls-4" d="m300.37,66.53c-4.13,0-7.53,3.14-7.94,7.16-.03.27-.04.54-.04.82,0,4.41,3.58,7.98,7.98,7.98s7.98-3.57,7.98-7.98-3.57-7.98-7.98-7.98Z"></path>
  <g>
    <path class="cls-5" d="m276.24,74.52c0,7.35-5.95,13.3-13.3,13.3s-13.3-5.95-13.3-13.3,5.95-13.3,13.3-13.3,13.3,5.95,13.3,13.3Z"></path>
    <path class="cls-4" d="m270.88,73.7c-.41-4.03-3.81-7.16-7.94-7.16-1.65,0-3.19.5-4.46,1.36-2.12,1.43-3.52,3.86-3.52,6.62,0,4.41,3.57,7.98,7.98,7.98s7.98-3.57,7.98-7.98c0-.28-.01-.55-.04-.82Z"></path>
  </g>
  <path class="cls-5" d="m196.5,74.3c0,4.41-3.57,7.98-7.98,7.98s-7.98-3.57-7.98-7.98,3.57-7.98,7.98-7.98,7.98,3.57,7.98,7.98Z"></path>
  <path class="cls-4" d="m334.7,74.3c0-1.47,1.19-2.66,2.66-2.66s2.66,1.19,2.66,2.66-1.19,2.66-2.66,2.66-2.66-1.19-2.66-2.66Z"></path>
  <path class="cls-3" d="m76.91,24.01c-7.34,0-13.3,5.95-13.3,13.3s5.95,13.3,13.3,13.3,13.3-5.95,13.3-13.3-5.95-13.3-13.3-13.3Z"></path>
  <path class="cls-5" d="m188.56,29.56c-4.41,0-7.98,3.57-7.98,7.98s3.57,7.98,7.98,7.98,7.98-3.57,7.98-7.98-3.57-7.98-7.98-7.98Z"></path>
  <path class="cls-4" d="m262.94,29.4c-4.13,0-7.53,3.14-7.94,7.16-.03.27-.04.54-.04.82,0,4.41,3.58,7.98,7.98,7.98s7.98-3.57,7.98-7.98-3.57-7.98-7.98-7.98Z"></path>
  <path class="cls-3" d="m36.8,74.3c0-1.47,1.19-2.66,2.66-2.66s2.66,1.19,2.66,2.66-1.19,2.66-2.66,2.66-2.66-1.19-2.66-2.66Z"></path>
  <g>
    <path class="cls-5" d="m114.27,61.22c-7.34,0-13.3,5.95-13.3,13.3s5.96,13.3,13.3,13.3,13.3-5.96,13.3-13.3-5.96-13.3-13.3-13.3Z"></path>
    <path class="cls-2" d="m116.93,74.52c0,1.47-1.19,2.66-2.66,2.66s-2.66-1.19-2.66-2.66,1.19-2.66,2.66-2.66,2.66,1.19,2.66,2.66Z"></path>
    <path class="cls-3" d="m116.93,74.52c0,1.47-1.19,2.66-2.66,2.66s-2.66-1.19-2.66-2.66,1.19-2.66,2.66-2.66,2.66,1.19,2.66,2.66Z"></path>
  </g>
  <path class="cls-3" d="m76.91,66.54c-4.41,0-7.98,3.57-7.98,7.98s3.57,7.98,7.98,7.98,7.98-3.57,7.98-7.98-3.57-7.98-7.98-7.98Z"></path>
  <g>
    <path class="cls-4" d="m150.54,140.07v1.6h-3.9v2.3h3.5v1.59h-3.5v3.79h-1.88v-9.28h5.78Z"></path>
    <path class="cls-4" d="m157.2,146.37c0,1.84-.87,3.09-2.9,3.09s-2.9-1.21-2.9-3.09v-.81c0-2.02,1.06-3.07,2.9-3.07s2.9,1.05,2.9,3.07v.81Zm-5.11-6.3h1.67v1.57h-1.67v-1.57Zm3.4,6.25v-.7c0-1.08-.35-1.67-1.2-1.67s-1.2.59-1.2,1.67v.7c0,.97.24,1.69,1.2,1.69s1.2-.73,1.2-1.69Zm-.66-6.25h1.65v1.57h-1.65v-1.57Z"></path>
    <path class="cls-4" d="m162.39,144.49c-.17-.26-.42-.51-.85-.51-.64,0-1.08.47-1.08,1.41v3.95h-1.72v-6.72h1.68v.56c.23-.34.67-.69,1.46-.69s1.41.35,1.82,1.05l-1.32.94Z"></path>
    <path class="cls-4" d="m168.43,140.07h1.71v9.28h-1.71v-.39c-.35.32-.81.51-1.44.51-1.76,0-2.66-1.25-2.66-3.04v-.91c0-1.96,1.06-3.01,2.66-3.01.58,0,1.06.15,1.44.47v-2.9Zm0,6.25v-.85c0-.98-.39-1.52-1.2-1.52-.85,0-1.2.59-1.2,1.67v.7c0,.97.27,1.69,1.2,1.69s1.2-.73,1.2-1.69Z"></path>
    <path class="cls-4" d="m177.13,148.32c-.47.82-1.25,1.14-2.46,1.14-2.02,0-2.98-1.3-2.98-3.04v-.91c0-2.03,1.02-3.01,2.77-3.01,1.9,0,2.77,1.1,2.77,3.15v.77h-3.83c.01.93.31,1.6,1.26,1.6.71,0,.94-.21,1.2-.58l1.28.89Zm-3.74-3.13h2.11c-.04-.87-.39-1.24-1.04-1.24-.69,0-1.01.47-1.08,1.24Z"></path>
    <path class="cls-4" d="m182.51,144.49c-.17-.26-.42-.51-.85-.51-.64,0-1.08.47-1.08,1.41v3.95h-1.72v-6.72h1.68v.56c.23-.34.67-.69,1.46-.69s1.41.35,1.82,1.05l-1.32.94Z"></path>
    <path class="cls-4" d="m184.35,142.62h.86v-1.48h1.71v1.48h1.32v1.45h-1.32v2.81c0,.67.13.95.77.95h.55v1.51h-.73c-1.63,0-2.3-.46-2.3-2.19v-3.08h-.86v-1.45Z"></path>
    <path class="cls-4" d="m200.4,144.51v.85c0,2.84-1.32,4.11-3.42,4.11s-3.56-1.27-3.56-4.11v-1.19c0-3,1.47-4.24,3.56-4.24,1.95,0,3.13,1.1,3.41,3h-1.8c-.16-.85-.66-1.42-1.6-1.42-1.09,0-1.67.74-1.67,2.52v1.32c0,1.78.58,2.52,1.67,2.52s1.5-.66,1.6-1.78h-1.56v-1.59h3.38Z"></path>
    <path class="cls-4" d="m207.34,148.32c-.47.82-1.25,1.15-2.47,1.15-2.02,0-2.99-1.31-2.99-3.04v-.92c0-2.03,1.02-3.02,2.78-3.02,1.9,0,2.78,1.11,2.78,3.15v.77h-3.84c.01.93.31,1.6,1.27,1.6.71,0,.94-.22,1.2-.58l1.28.89Zm-3.75-3.14h2.12c-.04-.88-.39-1.24-1.04-1.24-.69,0-1.01.47-1.08,1.24Z"></path>
    <path class="cls-4" d="m212.77,144.51c-.3-.35-.59-.54-1.32-.54-.44,0-.85.13-.85.53s.36.55,1.08.66c1.66.26,2.49.89,2.49,2.22s-.9,2.09-2.64,2.09c-1.38,0-2.21-.34-2.79-1.12l1.32-.94c.27.36.61.58,1.44.58.59,0,.96-.2.96-.55,0-.42-.3-.55-1.15-.69-1.4-.23-2.43-.82-2.43-2.18,0-1.28.92-2.08,2.6-2.08,1.11,0,2.02.26,2.55,1.12l-1.27.9Z"></path>
    <path class="cls-4" d="m221.44,149.34h-1.68v-.57c-.28.46-.65.69-1.54.69-1.36,0-2.48-.67-2.48-2.65v-4.2h1.72v3.95c0,1.06.38,1.43,1.09,1.43.79,0,1.17-.49,1.17-1.42v-3.96h1.71v6.74Z"></path>
    <path class="cls-4" d="m223.24,142.61h1.68v.57c.26-.34.79-.69,1.55-.69,1.36,0,2.47.65,2.47,2.64v4.22h-1.71v-3.95c0-1.05-.38-1.43-1.08-1.43-.79,0-1.19.53-1.19,1.42v3.96h-1.72v-6.74Z"></path>
    <path class="cls-4" d="m234.59,140.05h1.71v9.3h-1.71v-.39c-.35.32-.81.51-1.44.51-1.76,0-2.67-1.25-2.67-3.04v-.92c0-1.97,1.06-3.02,2.67-3.02.58,0,1.06.15,1.44.47v-2.91Zm0,6.27v-.85c0-.98-.39-1.52-1.2-1.52-.85,0-1.2.59-1.2,1.67v.7c0,.97.27,1.7,1.2,1.7s1.2-.73,1.2-1.7Z"></path>
    <path class="cls-4" d="m238.1,140.05h1.72v3.09c.26-.34.73-.65,1.51-.65,1.36,0,2.47.65,2.47,2.64v4.22h-1.71v-3.95c0-1.05-.38-1.43-1.08-1.43-.79,0-1.19.53-1.19,1.42v3.96h-1.72v-9.3Z"></path>
    <path class="cls-4" d="m250.81,148.32c-.47.82-1.25,1.15-2.47,1.15-2.02,0-2.99-1.31-2.99-3.04v-.92c0-2.03,1.02-3.02,2.78-3.02,1.9,0,2.78,1.11,2.78,3.15v.77h-3.84c.01.93.31,1.6,1.27,1.6.71,0,.94-.22,1.2-.58l1.28.89Zm-3.75-3.14h2.12c-.04-.88-.39-1.24-1.04-1.24-.69,0-1.01.47-1.08,1.24Z"></path>
    <path class="cls-4" d="m252.68,140.05h1.86v1.67h-1.86v-1.67Zm.07,2.56h1.72v6.74h-1.72v-6.74Z"></path>
    <path class="cls-4" d="m255.96,142.61h.86v-1.48h1.71v1.48h1.32v1.46h-1.32v2.82c0,.67.13.96.77.96h.55v1.51h-.73c-1.63,0-2.3-.46-2.3-2.2v-3.08h-.86v-1.46Z"></path>
    <path class="cls-4" d="m265.01,144.51c-.3-.35-.59-.54-1.32-.54-.44,0-.85.13-.85.53s.36.55,1.08.66c1.66.26,2.49.89,2.49,2.22s-.9,2.09-2.64,2.09c-1.38,0-2.21-.34-2.79-1.12l1.32-.94c.27.36.61.58,1.44.58.59,0,.96-.2.96-.55,0-.42-.3-.55-1.15-.69-1.4-.23-2.43-.82-2.43-2.18,0-1.28.92-2.08,2.6-2.08,1.11,0,2.02.26,2.55,1.12l-1.27.9Z"></path>
    <path class="cls-4" d="m267.7,144.69h3.49v1.51h-3.49v-1.51Z"></path>
    <path class="cls-4" d="m282.16,149.34h-1.68v-.57c-.28.46-.65.69-1.54.69-1.36,0-2.48-.67-2.48-2.65v-4.2h1.72v3.95c0,1.06.38,1.43,1.09,1.43.79,0,1.17-.49,1.17-1.42v-3.96h1.71v6.74Z"></path>
    <path class="cls-4" d="m283.95,142.61h1.68v.57c.26-.34.79-.69,1.55-.69,1.36,0,2.47.65,2.47,2.64v4.22h-1.71v-3.95c0-1.05-.38-1.43-1.08-1.43-.79,0-1.19.53-1.19,1.42v3.96h-1.72v-6.74Z"></path>
    <path class="cls-4" d="m295.31,140.05h1.71v9.3h-1.71v-.39c-.35.32-.81.51-1.44.51-1.76,0-2.67-1.25-2.67-3.04v-.92c0-1.97,1.06-3.02,2.67-3.02.58,0,1.06.15,1.44.47v-2.91Zm0,6.27v-.85c0-.98-.39-1.52-1.2-1.52-.85,0-1.2.59-1.2,1.67v.7c0,.97.27,1.7,1.2,1.7s1.2-.73,1.2-1.7Z"></path>
    <path class="cls-4" d="m307.65,142.46c-.4-.63-.89-.94-1.83-.94-.85,0-1.31.39-1.31,1.02,0,.73.59,1.05,1.83,1.36,1.94.49,2.82,1.21,2.82,2.86,0,1.52-1.02,2.71-3.21,2.71-1.63,0-2.76-.44-3.58-1.52l1.44-1c.5.62,1.06.93,2.02.93,1.08,0,1.44-.47,1.44-1.04,0-.65-.39-1.01-1.9-1.4-1.83-.49-2.75-1.36-2.75-2.9s.97-2.61,3.18-2.61c1.48,0,2.6.5,3.26,1.52l-1.42,1.01Z"></path>
    <path class="cls-4" d="m316.32,146.37c0,1.85-.88,3.1-2.91,3.1s-2.91-1.21-2.91-3.1v-.81c0-2.02,1.06-3.07,2.91-3.07s2.91,1.05,2.91,3.07v.81Zm-1.71-.05v-.7c0-1.08-.35-1.67-1.2-1.67s-1.2.59-1.2,1.67v.7c0,.97.24,1.7,1.2,1.7s1.2-.73,1.2-1.7Z"></path>
    <path class="cls-4" d="m320.54,144.06h-2.92v-1.46h5.15v1.2l-2.92,4.08h3.02v1.46h-5.28v-1.2l2.96-4.08Z"></path>
    <path class="cls-4" d="m324.45,140.05h1.86v1.67h-1.86v-1.67Zm.07,2.56h1.72v6.74h-1.72v-6.74Z"></path>
    <path class="cls-4" d="m330.38,145.3h1.33v-.39c0-.75-.23-1-1.2-1-.66,0-.98.09-1.27.54l-1.21-.85c.5-.82,1.25-1.12,2.64-1.12,1.74,0,2.72.51,2.72,2.44v4.42h-1.68v-.59c-.27.46-.67.71-1.46.71-1.4,0-2.37-.74-2.37-2.12s1.08-2.05,2.49-2.05Zm1.33,1.27h-1.13c-.7,0-1.01.23-1.01.75s.39.75.98.75c.78,0,1.16-.34,1.16-1.25v-.26Z"></path>
    <path class="cls-4" d="m335.18,140.05h1.72v6.75c0,.73.21,1.06.94,1.06v1.48c-1.82,0-2.67-.47-2.67-2.16v-7.14Z"></path>
    <path class="cls-4" d="m341.05,143.02c.36-.39.88-.54,1.46-.54,1.62,0,2.65,1.05,2.65,3.07v.81c0,1.85-.88,3.1-2.65,3.1-.66,0-1.13-.17-1.46-.53v.4h-1.63v-9.3h1.63v2.98Zm2.4,3.29v-.7c0-1.08-.35-1.67-1.2-1.67s-1.2.59-1.2,1.67v.7c0,.97.3,1.7,1.2,1.7s1.2-.73,1.2-1.7Z"></path>
    <path class="cls-4" d="m351.92,148.32c-.47.82-1.25,1.15-2.47,1.15-2.02,0-2.99-1.31-2.99-3.04v-.92c0-2.03,1.02-3.02,2.78-3.02,1.9,0,2.78,1.11,2.78,3.15v.77h-3.84c.01.93.31,1.6,1.27,1.6.71,0,.94-.22,1.2-.58l1.28.89Zm-3.75-3.14h2.12c-.04-.88-.39-1.24-1.04-1.24-.69,0-1.01.47-1.08,1.24Z"></path>
    <path class="cls-4" d="m357.31,144.48c-.18-.26-.42-.51-.85-.51-.65,0-1.08.47-1.08,1.42v3.96h-1.72v-6.74h1.68v.57c.23-.34.67-.69,1.47-.69s1.42.35,1.82,1.05l-1.32.94Z"></path>
    <path class="cls-4" d="m365.29,149.34h-1.68v-.57c-.28.46-.65.69-1.54.69-1.36,0-2.48-.67-2.48-2.65v-4.2h1.72v3.95c0,1.06.38,1.43,1.09,1.43.79,0,1.17-.49,1.17-1.42v-3.96h1.71v6.74Z"></path>
    <path class="cls-4" d="m367.44,142.61v-.36c0-1.74.67-2.2,2.3-2.2h.5v1.51h-.32c-.63,0-.77.28-.77.96v.09h1.09v1.46h-1.09v5.28h-1.71v-5.28h-.86v-1.46h.86Z"></path>
    <path class="cls-4" d="m376.76,148.32c-.47.82-1.25,1.15-2.47,1.15-2.02,0-2.99-1.31-2.99-3.04v-.92c0-2.03,1.02-3.02,2.78-3.02,1.9,0,2.78,1.11,2.78,3.15v.77h-3.84c.01.93.31,1.6,1.27,1.6.71,0,.94-.22,1.2-.58l1.28.89Zm-3.75-3.14h2.12c-.04-.88-.39-1.24-1.04-1.24-.69,0-1.01.47-1.08,1.24Z"></path>
  </g>
  <g>
    <path class="cls-4" d="m152.16,123.16c-4.36,0-7.42-2.64-7.42-8.57v-2.75c0-5.99,3.06-8.57,7.42-8.57s7.45,2.59,7.45,8.57v2.75c0,5.93-3.06,8.57-7.45,8.57Zm-3.49-8.57c0,3.71,1.21,5.26,3.49,5.26s3.51-1.55,3.51-5.26v-2.75c0-3.71-1.24-5.26-3.51-5.26s-3.49,1.55-3.49,5.26v2.75Z"></path>
    <path class="cls-4" d="m171.26,103.51h3.57v19.39h-3.57v-.82c-.73.67-1.69,1.07-3.01,1.07-3.68,0-5.56-2.61-5.56-6.35v-1.91c0-4.1,2.22-6.3,5.56-6.3,1.21,0,2.22.31,3.01.98v-6.07Zm0,13.07v-1.77c0-2.05-.82-3.18-2.5-3.18-1.77,0-2.5,1.24-2.5,3.49v1.46c0,2.02.56,3.54,2.5,3.54s2.5-1.52,2.5-3.54Z"></path>
    <path class="cls-4" d="m177.02,122.91l6.75-19.39h3.77l6.75,19.39h-4.19l-1.18-3.68h-6.49l-1.18,3.68h-4.22Zm6.44-7h4.38l-2.19-6.83-2.19,6.83Z"></path>
    <path class="cls-4" d="m218.78,112.82v1.77c0,5.93-2.75,8.57-7.14,8.57s-7.42-2.64-7.42-8.57v-2.47c0-6.27,3.06-8.85,7.42-8.85,4.08,0,6.52,2.3,7.11,6.27h-3.77c-.34-1.77-1.38-2.95-3.34-2.95-2.28,0-3.49,1.55-3.49,5.26v2.75c0,3.71,1.21,5.26,3.49,5.26s3.12-1.38,3.34-3.71h-3.26v-3.32h7.05Z"></path>
    <path class="cls-4" d="m232.95,108.54c-.84-1.32-1.86-1.97-3.82-1.97-1.77,0-2.73.82-2.73,2.14,0,1.52,1.24,2.19,3.82,2.84,4.05,1.01,5.87,2.53,5.87,5.96,0,3.18-2.14,5.65-6.69,5.65-3.4,0-5.76-.93-7.48-3.18l3.01-2.08c1.04,1.29,2.22,1.94,4.22,1.94,2.25,0,3.01-.98,3.01-2.16,0-1.35-.82-2.11-3.96-2.92-3.82-1.01-5.73-2.84-5.73-6.04s2.02-5.45,6.63-5.45c3.09,0,5.42,1.04,6.8,3.18l-2.95,2.11Z"></path>
    <path class="cls-4" d="m245.7,122.91l6.75-19.39h3.77l6.75,19.39h-4.19l-1.18-3.68h-6.49l-1.18,3.68h-4.22Zm6.44-7h4.38l-2.19-6.83-2.19,6.83Z"></path>
    <path class="cls-4" d="m269.64,114.47h2.78v-.82c0-1.57-.48-2.08-2.5-2.08-1.38,0-2.05.2-2.64,1.12l-2.53-1.77c1.04-1.71,2.61-2.33,5.51-2.33,3.63,0,5.68,1.07,5.68,5.09v9.22h-3.51v-1.24c-.56.96-1.41,1.49-3.04,1.49-2.92,0-4.95-1.55-4.95-4.41s2.25-4.27,5.2-4.27Zm2.78,2.64h-2.36c-1.46,0-2.11.48-2.11,1.57s.82,1.57,2.05,1.57c1.63,0,2.42-.7,2.42-2.61v-.53Z"></path>
    <path class="cls-4" d="m287.26,112.76c-.37-.53-.87-1.07-1.77-1.07-1.35,0-2.25.98-2.25,2.95v8.26h-3.6v-14.05h3.51v1.18c.48-.7,1.41-1.43,3.06-1.43s2.95.73,3.79,2.19l-2.75,1.97Z"></path>
    <path class="cls-4" d="m299.88,108.85h3.57v13.77c0,4.69-2.64,5.79-6.18,5.79-2.61,0-4.27-.62-5.51-2.53l2.42-1.74c.62.84,1.43,1.27,2.75,1.27,2.14,0,2.95-.62,2.95-2.78v-.45c-.76.65-1.74.98-3.01.98-3.68,0-5.56-2.61-5.56-6.35v-1.91c0-4.1,2.22-6.3,5.56-6.3,1.27,0,2.25.34,3.01.98v-.73Zm0,8.04v-1.77c0-2.25-.73-3.49-2.5-3.49s-2.5,1.24-2.5,3.49v1.46c0,2.02.56,3.54,2.5,3.54s2.5-1.38,2.5-3.23Z"></path>
    <path class="cls-4" d="m311.68,114.47h2.78v-.82c0-1.57-.48-2.08-2.5-2.08-1.38,0-2.05.2-2.64,1.12l-2.53-1.77c1.04-1.71,2.61-2.33,5.51-2.33,3.63,0,5.68,1.07,5.68,5.09v9.22h-3.51v-1.24c-.56.96-1.41,1.49-3.04,1.49-2.92,0-4.95-1.55-4.95-4.41s2.25-4.27,5.2-4.27Zm2.78,2.64h-2.36c-1.46,0-2.11.48-2.11,1.57s.82,1.57,2.05,1.57c1.63,0,2.42-.7,2.42-2.61v-.53Z"></path>
    <path class="cls-4" d="m333.57,122.91h-3.51v-1.18c-.59.96-1.35,1.43-3.2,1.43-2.84,0-5.17-1.41-5.17-5.54v-8.77h3.6v8.24c0,2.22.79,2.98,2.28,2.98,1.66,0,2.45-1.01,2.45-2.95v-8.26h3.57v14.05Z"></path>
    <path class="cls-4" d="m343.63,122.91l6.75-19.39h3.77l6.75,19.39h-4.19l-1.18-3.68h-6.49l-1.18,3.68h-4.22Zm6.44-7h4.38l-2.19-6.83-2.19,6.83Z"></path>
    <path class="cls-4" d="m376.96,112.82v1.77c0,5.93-2.75,8.57-7.14,8.57s-7.42-2.64-7.42-8.57v-2.47c0-6.27,3.06-8.85,7.42-8.85,4.08,0,6.52,2.3,7.11,6.27h-3.77c-.34-1.77-1.38-2.95-3.34-2.95-2.28,0-3.49,1.55-3.49,5.26v2.75c0,3.71,1.21,5.26,3.49,5.26s3.12-1.38,3.34-3.71h-3.26v-3.32h7.05Z"></path>
  </g>
  <path class="cls-5" d="m116.81,111.73c0,1.47-1.19,2.66-2.66,2.66s-2.66-1.19-2.66-2.66,1.19-2.66,2.66-2.66,2.66,1.19,2.66,2.66Z"></path>
  <path class="cls-5" d="m151.38,61.22c-7.34,0-13.3,5.95-13.3,13.3s5.96,13.3,13.3,13.3,13.3-5.96,13.3-13.3-5.96-13.3-13.3-13.3Z"></path>
  <polyline class="cls-6" points="300.21 0 300.21 37.27 262.94 37.27 262.94 0"></polyline>
  <path class="cls-4" d="m371.66,37.2c0-1.47,1.19-2.66,2.66-2.66s2.66,1.19,2.66,2.66-1.19,2.66-2.66,2.66-2.66-1.19-2.66-2.66Z"></path>
  <path class="cls-4" d="m371.66,74.3c0-1.47,1.19-2.66,2.66-2.66s2.66,1.19,2.66,2.66-1.19,2.66-2.66,2.66-2.66-1.19-2.66-2.66Z"></path>
</svg>
