<svg width="100px" height="100px" viewBox="25 0 49 100" fill="none" xmlns="http://www.w3.org/2000/svg">
    <g>
        <path d="M10.5269 43.4579V32.3585L29.8033 43.4879L68.336 21.239L77.9842 26.7837L39.4515 49.0426L49.0096 54.6174L96.2497 27.3142C95.7021 26.3291 94.8957 25.5124 93.9177 24.9522L68.2559 10.1496L29.8033 32.3485L20.1651 26.7837L58.6277 4.58491L52.1422 0.83172C51.1918 0.286503 50.1153 -0.00037384 49.0196 -0.00037384C47.9239 -0.00037384 46.8473 0.286503 45.8969 0.83172L4.04141 25.0223C3.09688 25.5699 2.31184 26.3548 1.76411 27.2993C1.21638 28.2438 0.924971 29.315 0.918764 30.4068V49.0426L49.0196 76.7962L87.5823 54.5273V65.6367L49.0196 87.9056L0.918764 60.1321V67.6384C0.91798 68.737 1.20607 69.8165 1.75415 70.7686C2.30223 71.7207 3.09102 72.512 4.04141 73.063L45.8969 97.2035C46.8467 97.7507 47.9235 98.0387 49.0196 98.0387C50.1157 98.0387 51.1925 97.7507 52.1422 97.2035L93.9978 73.063C94.9467 72.5128 95.7345 71.7231 96.2825 70.7729C96.8305 69.8227 97.1194 68.7453 97.1204 67.6484V37.9132L49.0196 65.6868L10.5269 43.4579Z"
              fill="#E55637"/>
    </g>
</svg>